<?xml version="1.0" encoding="utf-8"?>
<svg xmlns="http://www.w3.org/2000/svg" height="121" width="400">
  <g fill="#3A3A3A" fill-rule="evenodd">
    <path d="M248 94.519c-23.185 17.11-56.74 26.222-85.704 26.222-40.518 0-77.037-14.963-104.666-39.926-2.149-1.926-.223-4.667 2.37-3.111 29.778 17.333 66.667 27.777 104.74 27.777 25.704 0 53.927-5.333 79.927-16.37 3.926-1.63 7.185 2.593 3.333 5.408z"/>
    <path d="M257.63 83.556c-2.963-3.778-19.556-1.778-27.037-.89-2.297.297-2.593-1.703-.593-3.11 13.26-9.334 34.963-6.593 37.556-3.482 2.518 3.111-.667 24.963-13.112 35.333-1.925 1.63-3.703.741-2.888-1.333 2.814-7.111 9.037-22.74 6.074-26.518zm-26.519-69.852V4.667c0-1.408 1.037-2.297 2.296-2.297H274c1.333 0 2.37.963 2.37 2.297v7.777c0 1.334-1.11 3.037-3.037 5.704l-21.037 30c7.778-.148 16.074.963 23.111 4.963 1.63.889 2 2.222 2.149 3.556v9.63c0 1.333-1.482 2.888-2.963 2.073-12.519-6.518-29.037-7.259-42.89.074-1.407.741-2.888-.74-2.888-2.074v-9.185c0-1.481 0-4 1.481-6.222L254.666 16h-21.185c-1.333 0-2.37-.963-2.37-2.296zm-148 56.518h-12.37c-1.185-.074-2.148-.963-2.222-2.074V4.815c0-1.26 1.037-2.296 2.37-2.296H82.37c1.186.074 2.149.962 2.223 2.148v8.296h.222c2.963-8 8.666-11.704 16.222-11.704 7.704 0 12.593 3.704 16 11.704 2.963-8 9.778-11.704 17.037-11.704 5.185 0 10.815 2.148 14.296 6.963 3.926 5.334 3.111 13.037 3.111 19.852v40c0 1.26-1.037 2.296-2.37 2.296h-12.296c-1.26-.074-2.222-1.037-2.222-2.296V34.52c0-2.667.222-9.334-.37-11.852-.89-4.297-3.704-5.482-7.26-5.482-2.963 0-6.074 2-7.407 5.185-1.26 3.186-1.186 8.519-1.186 12.149v33.555c0 1.26-1.037 2.296-2.37 2.296h-12.296c-1.26-.074-2.223-1.037-2.223-2.296V34.52c0-7.038 1.186-17.482-7.63-17.482-8.888 0-8.518 10.148-8.518 17.482v33.555c.148 1.111-.889 2.148-2.222 2.148zM311.26 1.185c18.296 0 28.221 15.704 28.221 35.704 0 19.333-10.962 34.667-28.222 34.667-18 0-27.778-15.704-27.778-35.334 0-19.703 9.926-35.037 27.778-35.037zm.073 12.89c-9.11 0-9.703 12.37-9.703 20.147 0 7.704-.149 24.297 9.555 24.297 9.556 0 10-13.334 10-21.482 0-5.333-.222-11.704-1.852-16.815-1.259-4.37-4.074-6.148-8-6.148zm51.927 56.147h-12.297c-1.26-.074-2.222-1.037-2.222-2.296V4.519c.074-1.186 1.11-2.075 2.37-2.075h11.482c1.11.075 2 .815 2.222 1.778v9.704h.222c3.482-8.667 8.296-12.815 16.815-12.815 5.555 0 10.963 2 14.37 7.482 3.26 5.037 3.26 13.63 3.26 19.703v39.852c-.149 1.111-1.112 2-2.37 2H384.74c-1.111-.074-2.074-.889-2.222-2v-34.37c0-6.963.814-17.037-7.704-17.037-2.963 0-5.778 2-7.111 5.037-1.704 3.852-1.926 7.703-1.926 12v34.074c-.148 1.333-1.185 2.37-2.519 2.37zM198.815 40c0 4.815.148 8.815-2.296 13.111-1.926 3.482-5.112 5.63-8.519 5.63-4.74 0-7.481-3.63-7.481-8.963 0-10.519 9.407-12.445 18.37-12.445V40h-.074zm12.37 30.074c-.815.74-2 .815-2.889.296-4.074-3.407-4.815-4.963-7.11-8.222-6.742 6.889-11.556 8.963-20.371 8.963-10.37 0-18.445-6.444-18.445-19.26 0-10 5.408-16.814 13.186-20.147 6.666-2.963 16.074-3.482 23.185-4.297v-1.63c0-2.962.222-6.444-1.482-8.962-1.481-2.296-4.37-3.185-6.963-3.185-4.74 0-8.889 2.444-9.926 7.407-.222 1.111-1.037 2.222-2.148 2.296l-12-1.333c-1.037-.222-2.148-1.037-1.852-2.593C167.111 4.89 180.222.52 192 .52c6 0 13.852 1.63 18.593 6.148 6 5.63 5.407 13.11 5.407 21.259v19.26c0 5.777 2.37 8.295 4.667 11.407.814 1.11.963 2.444-.074 3.259-2.37 2.148-6.89 6.074-9.408 8.222zM36.963 40c0 4.815.148 8.815-2.296 13.111-1.926 3.482-5.111 5.63-8.519 5.63-4.74 0-7.481-3.63-7.481-8.963 0-10.519 9.407-12.445 18.37-12.445V40h-.074zm12.444 30.074c-.814.74-2 .815-2.888.296-4.075-3.407-4.815-4.963-7.112-8.222-6.74 6.889-11.555 8.963-20.37 8.963-10.37 0-18.444-6.444-18.444-19.26 0-10 5.407-16.814 13.185-20.147 6.666-2.963 16.074-3.482 23.185-4.297v-1.63c0-2.962.222-6.444-1.482-8.962-1.481-2.296-4.37-3.185-6.962-3.185-4.741 0-8.89 2.444-9.926 7.407-.223 1.111-1.037 2.222-2.149 2.296L4.52 22c-1.038-.222-2.149-1.037-1.852-2.593C5.407 4.89 18.519.52 30.297.52c6 0 13.851 1.63 18.592 6.148 6 5.63 5.407 13.11 5.407 21.259v19.26c0 5.777 2.37 8.295 4.667 11.407.815 1.11.963 2.444-.074 3.259-2.519 2.148-6.963 6.074-9.482 8.222z"/>
  </g>
</svg>