<?xml version="1.0" encoding="utf-8"?>
<svg xmlns="http://www.w3.org/2000/svg" height="398" width="288">
  <path d="M76.681 55.652c-13.913 0-25.217 11.305-25.217 25.507 0 13.913 11.304 25.218 25.217 25.218 13.913 0 25.507-11.305 25.507-25.218 0-14.202-11.304-25.507-25.507-25.507zm0 0c-13.913 0-25.217 11.305-25.217 25.507 0 13.913 11.304 25.218 25.217 25.218 13.913 0 25.507-11.305 25.507-25.218 0-14.202-11.304-25.507-25.507-25.507zm0 0c-13.913 0-25.217 11.305-25.217 25.507 0 13.913 11.304 25.218 25.217 25.218 13.913 0 25.507-11.305 25.507-25.218 0-14.202-11.304-25.507-25.507-25.507zm34.783 262.319c-2.609 0-4.638 2.029-4.638 4.638 0 2.608 2.03 4.637 4.638 4.637s4.637-2.029 4.637-4.637c0-2.609-2.029-4.638-4.637-4.638zm38.55 0c-2.608 0-4.637 2.029-4.637 4.638 0 2.608 2.029 4.637 4.637 4.637 2.61 0 4.638-2.029 4.638-4.637 0-2.609-2.029-4.638-4.638-4.638zm0 0c-2.608 0-4.637 2.029-4.637 4.638 0 2.608 2.029 4.637 4.637 4.637 2.61 0 4.638-2.029 4.638-4.637 0-2.609-2.029-4.638-4.638-4.638zm-38.55 0c-2.609 0-4.638 2.029-4.638 4.638 0 2.608 2.03 4.637 4.638 4.637s4.637-2.029 4.637-4.637c0-2.609-2.029-4.638-4.637-4.638zM76.68 55.652c-13.913 0-25.217 11.305-25.217 25.507 0 13.913 11.304 25.218 25.217 25.218 13.913 0 25.507-11.305 25.507-25.218 0-14.202-11.304-25.507-25.507-25.507zM34.072 319.13c-2.608 0-4.637 2.03-4.637 4.638 0 2.609 2.029 4.638 4.637 4.638 2.61 0 4.638-2.03 4.638-4.638 0-2.609-2.029-4.638-4.638-4.638zm39.13-1.159c-2.608 0-4.637 2.029-4.637 4.638 0 2.608 2.03 4.637 4.638 4.637 2.609 0 4.638-2.029 4.638-4.637 0-2.609-2.03-4.638-4.638-4.638zm3.48-262.319c-13.914 0-25.218 11.305-25.218 25.507 0 13.913 11.304 25.218 25.217 25.218 13.913 0 25.507-11.305 25.507-25.218 0-14.202-11.304-25.507-25.507-25.507zm34.782 262.319c-2.609 0-4.638 2.029-4.638 4.638 0 2.608 2.03 4.637 4.638 4.637s4.637-2.029 4.637-4.637c0-2.609-2.029-4.638-4.637-4.638zm38.55 0c-2.608 0-4.637 2.029-4.637 4.638 0 2.608 2.029 4.637 4.637 4.637 2.61 0 4.638-2.029 4.638-4.637 0-2.609-2.029-4.638-4.638-4.638zm0 0c-2.608 0-4.637 2.029-4.637 4.638 0 2.608 2.029 4.637 4.637 4.637 2.61 0 4.638-2.029 4.638-4.637 0-2.609-2.029-4.638-4.638-4.638zm-38.55 0c-2.609 0-4.638 2.029-4.638 4.638 0 2.608 2.03 4.637 4.638 4.637s4.637-2.029 4.637-4.637c0-2.609-2.029-4.638-4.637-4.638zm-38.261 0c-2.609 0-4.638 2.029-4.638 4.638 0 2.608 2.03 4.637 4.638 4.637 2.609 0 4.638-2.029 4.638-4.637 0-2.609-2.03-4.638-4.638-4.638zm-39.13 1.16c-2.61 0-4.638 2.028-4.638 4.637 0 2.609 2.029 4.638 4.637 4.638 2.61 0 4.638-2.03 4.638-4.638 0-2.609-2.029-4.638-4.638-4.638zM76.68 55.651c-13.913 0-25.217 11.305-25.217 25.507 0 13.913 11.304 25.218 25.217 25.218 13.913 0 25.507-11.305 25.507-25.218 0-14.202-11.304-25.507-25.507-25.507zM34.072 319.13c-2.608 0-4.637 2.03-4.637 4.638 0 2.609 2.029 4.638 4.637 4.638 2.61 0 4.638-2.03 4.638-4.638 0-2.609-2.029-4.638-4.638-4.638zm39.13-1.159c-2.608 0-4.637 2.029-4.637 4.638 0 2.608 2.03 4.637 4.638 4.637 2.609 0 4.638-2.029 4.638-4.637 0-2.609-2.03-4.638-4.638-4.638zm3.48-262.319c-13.914 0-25.218 11.305-25.218 25.507 0 13.913 11.304 25.218 25.217 25.218 13.913 0 25.507-11.305 25.507-25.218 0-14.202-11.304-25.507-25.507-25.507zm34.782 262.319c-2.609 0-4.638 2.029-4.638 4.638 0 2.608 2.03 4.637 4.638 4.637s4.637-2.029 4.637-4.637c0-2.609-2.029-4.638-4.637-4.638zm38.55 0c-2.608 0-4.637 2.029-4.637 4.638 0 2.608 2.029 4.637 4.637 4.637 2.61 0 4.638-2.029 4.638-4.637 0-2.609-2.029-4.638-4.638-4.638zm0 0c-2.608 0-4.637 2.029-4.637 4.638 0 2.608 2.029 4.637 4.637 4.637 2.61 0 4.638-2.029 4.638-4.637 0-2.609-2.029-4.638-4.638-4.638zm-38.55 0c-2.609 0-4.638 2.029-4.638 4.638 0 2.608 2.03 4.637 4.638 4.637s4.637-2.029 4.637-4.637c0-2.609-2.029-4.638-4.637-4.638zm-38.261 0c-2.609 0-4.638 2.029-4.638 4.638 0 2.608 2.03 4.637 4.638 4.637 2.609 0 4.638-2.029 4.638-4.637 0-2.609-2.03-4.638-4.638-4.638zm-39.13 1.16c-2.61 0-4.638 2.028-4.638 4.637 0 2.609 2.029 4.638 4.637 4.638 2.61 0 4.638-2.03 4.638-4.638 0-2.609-2.029-4.638-4.638-4.638zM76.68 55.651c-13.913 0-25.217 11.305-25.217 25.507 0 13.913 11.304 25.218 25.217 25.218 13.913 0 25.507-11.305 25.507-25.218 0-14.202-11.304-25.507-25.507-25.507zM34.072 319.13c-2.608 0-4.637 2.03-4.637 4.638 0 2.609 2.029 4.638 4.637 4.638 2.61 0 4.638-2.03 4.638-4.638 0-2.609-2.029-4.638-4.638-4.638zm39.13-1.159c-2.608 0-4.637 2.029-4.637 4.638 0 2.608 2.03 4.637 4.638 4.637 2.609 0 4.638-2.029 4.638-4.637 0-2.609-2.03-4.638-4.638-4.638zm3.48-262.319c-13.914 0-25.218 11.305-25.218 25.507 0 13.913 11.304 25.218 25.217 25.218 13.913 0 25.507-11.305 25.507-25.218 0-14.202-11.304-25.507-25.507-25.507zm34.782 262.319c-2.609 0-4.638 2.029-4.638 4.638 0 2.608 2.03 4.637 4.638 4.637s4.637-2.029 4.637-4.637c0-2.609-2.029-4.638-4.637-4.638zm38.55 0c-2.608 0-4.637 2.029-4.637 4.638 0 2.608 2.029 4.637 4.637 4.637 2.61 0 4.638-2.029 4.638-4.637 0-2.609-2.029-4.638-4.638-4.638zm0 0c-2.608 0-4.637 2.029-4.637 4.638 0 2.608 2.029 4.637 4.637 4.637 2.61 0 4.638-2.029 4.638-4.637 0-2.609-2.029-4.638-4.638-4.638zm-38.55 0c-2.609 0-4.638 2.029-4.638 4.638 0 2.608 2.03 4.637 4.638 4.637s4.637-2.029 4.637-4.637c0-2.609-2.029-4.638-4.637-4.638zm-38.261 0c-2.609 0-4.638 2.029-4.638 4.638 0 2.608 2.03 4.637 4.638 4.637 2.609 0 4.638-2.029 4.638-4.637 0-2.609-2.03-4.638-4.638-4.638zm-39.13 1.16c-2.61 0-4.638 2.028-4.638 4.637 0 2.609 2.029 4.638 4.637 4.638 2.61 0 4.638-2.03 4.638-4.638 0-2.609-2.029-4.638-4.638-4.638zM76.68 55.651c-13.913 0-25.217 11.305-25.217 25.507 0 13.913 11.304 25.218 25.217 25.218 13.913 0 25.507-11.305 25.507-25.218 0-14.202-11.304-25.507-25.507-25.507zM.74.87v374.202h286.087V.87H.74zm19.42 180.29h13.913c11.595 0 19.71-2.9 29.566-7.537 14.782-6.956 22.608-19.71 22.608-19.71l-16.521-9.855s-6.667 8.116-15.942 12.754c-8.986 4.347-16.232 4.637-18.841 4.637H19.87V20.58h113.623v116.522c2.319 53.913-36.522 87.537-80.87 87.537H19.58V181.16h.58zm23.189 171.014c-3.768 3.768-8.696 6.377-13.623 6.377-3.479 0-7.537.29-7.537.29-1.449 0-2.898-.29-2.898-2.03v-7.536c0-1.16.58-2.318 2.029-2.318h5.797c2.898 0 6.667-2.61 7.826-4.348 1.16-1.74.87-2.609 0-3.479-.58-.58-2.319-.87-3.188.58-1.16 1.45-4.348 3.189-6.087 3.189h-3.189c-1.449 0-2.898-.29-2.898-2.32v-29.275c0-1.449.58-2.318 2.029-2.318h25.507c1.45 0 2.029 1.159 2.029 2.608v23.768c.29 10.435-2.319 13.334-5.797 16.812zm45.217-16.812c0 2.03-.58 2.609-2.319 2.609H59.87c-1.45 0-2.899 0-2.899-2.029v-24.638c0-1.449.58-2.318 2.029-2.318h27.536c1.45 0 2.03 1.159 2.03 2.608v23.768zm38.261 0c0 2.03-.58 2.609-2.319 2.609H98.13c-1.449 0-2.898 0-2.898-2.029v-24.638c0-1.449.58-2.318 2.029-2.318h27.536c1.45 0 2.03 1.159 2.03 2.608v23.768zm38.55 0c0 2.03-.289 2.609-2.028 2.609h-27.536c-1.45 0-2.03 0-2.03-2.029v-24.638c0-1.449.58-2.318 2.03-2.318h16.521c1.74 0 2.32-.87 2.32-2.61v-8.695c0-1.45.579-2.609 2.028-2.609h6.667c1.45 0 2.029 1.16 2.029 2.61v37.68zm49.276 0c0 2.03-.29 2.609-2.609 2.609h-37.101c-2.029 0-2.609 0-2.609-2.029v-24.928c0-.87.58-2.028 1.45-2.028h8.116c1.159 0 1.159 1.449 1.159 2.028v14.493c0 1.16.58 2.03 1.45 2.03h2.028c.58 0 1.74-.58 1.74-2.03v-14.493c0-.58.58-2.028 1.159-2.028h7.826c.87 0 1.16 1.159 1.16 2.028v14.493c0 1.16.869 2.03 1.738 2.03h2.32c.579 0 1.738-.58 1.738-2.03v-14.493c0-.87.58-2.028 1.16-2.028h8.116c.58 0 .87 1.159.87 2.028v24.348h.29zm17.391 0c0 2.03 0 2.609-1.739 2.609h-6.956c-1.74 0-2.03-.87-2.03-2.609v-24.348c0-1.159 1.16-2.028 2.03-2.028h6.956c1.16 0 1.74 1.159 1.74 2.028v24.348zm0-31.594c0 2.03 0 2.609-1.739 2.609h-6.956c-1.74 0-2.03-.87-2.03-2.609v-6.667c0-1.159 1.16-2.029 2.03-2.029h6.956c1.16 0 1.74 1.16 1.74 2.03v6.666zm17.682 31.594c0 2.03 0 2.609-1.74 2.609h-6.666c-1.74 0-2.03-.87-2.03-2.609v-38.26c0-1.16 1.16-2.03 2.03-2.03h6.667c1.159 0 1.739 1.16 1.739 2.03v38.26zm17.39 0c0 2.03 0 2.609-1.738 2.609h-6.667c-1.739 0-2.029-.87-2.029-2.609v-38.26c0-1.16 1.16-2.03 2.03-2.03h6.666c1.16 0 1.739 1.16 1.739 2.03v38.26zm.29-54.782H20.16v-36.232h39.13c50.725 0 94.494-47.247 94.494-103.478V20.58h113.913v260h-.29zm-117.39 37.391c-2.61 0-4.638 2.029-4.638 4.638 0 2.608 2.029 4.637 4.637 4.637 2.61 0 4.638-2.029 4.638-4.637 0-2.609-2.029-4.638-4.638-4.638zm-38.551 0c-2.609 0-4.638 2.029-4.638 4.638 0 2.608 2.03 4.637 4.638 4.637s4.637-2.029 4.637-4.637c0-2.609-2.029-4.638-4.637-4.638zm-9.276-236.812c0-13.913-11.304-25.507-25.507-25.507-13.913 0-25.217 11.305-25.217 25.507 0 13.913 11.304 25.218 25.217 25.218 14.203 0 25.507-11.305 25.507-25.218zM73.203 317.971c-2.609 0-4.638 2.029-4.638 4.638 0 2.608 2.03 4.637 4.638 4.637 2.609 0 4.638-2.029 4.638-4.637 0-2.609-2.03-4.638-4.638-4.638zm-39.13 1.16c-2.61 0-4.638 2.028-4.638 4.637 0 2.609 2.029 4.638 4.637 4.638 2.61 0 4.638-2.03 4.638-4.638 0-2.609-2.029-4.638-4.638-4.638zM76.68 55.651c-13.913 0-25.217 11.305-25.217 25.507 0 13.913 11.304 25.218 25.217 25.218 13.913 0 25.507-11.305 25.507-25.218 0-14.202-11.304-25.507-25.507-25.507zM34.072 319.13c-2.608 0-4.637 2.03-4.637 4.638 0 2.609 2.029 4.638 4.637 4.638 2.61 0 4.638-2.03 4.638-4.638 0-2.609-2.029-4.638-4.638-4.638zm39.13-1.159c-2.608 0-4.637 2.029-4.637 4.638 0 2.608 2.03 4.637 4.638 4.637 2.609 0 4.638-2.029 4.638-4.637 0-2.609-2.03-4.638-4.638-4.638zm38.262 0c-2.609 0-4.638 2.029-4.638 4.638 0 2.608 2.03 4.637 4.638 4.637s4.637-2.029 4.637-4.637c0-2.609-2.029-4.638-4.637-4.638zm38.55 0c-2.608 0-4.637 2.029-4.637 4.638 0 2.608 2.029 4.637 4.637 4.637 2.61 0 4.638-2.029 4.638-4.637 0-2.609-2.029-4.638-4.638-4.638zm0 0c-2.608 0-4.637 2.029-4.637 4.638 0 2.608 2.029 4.637 4.637 4.637 2.61 0 4.638-2.029 4.638-4.637 0-2.609-2.029-4.638-4.638-4.638zm-38.55 0c-2.609 0-4.638 2.029-4.638 4.638 0 2.608 2.03 4.637 4.638 4.637s4.637-2.029 4.637-4.637c0-2.609-2.029-4.638-4.637-4.638zM76.68 55.652c-13.913 0-25.217 11.305-25.217 25.507 0 13.913 11.304 25.218 25.217 25.218 13.913 0 25.507-11.305 25.507-25.218 0-14.202-11.304-25.507-25.507-25.507zm-3.478 262.319c-2.609 0-4.638 2.029-4.638 4.638 0 2.608 2.03 4.637 4.638 4.637 2.609 0 4.638-2.029 4.638-4.637 0-2.609-2.03-4.638-4.638-4.638zm-39.13 1.16c-2.61 0-4.638 2.028-4.638 4.637 0 2.609 2.029 4.638 4.637 4.638 2.61 0 4.638-2.03 4.638-4.638 0-2.609-2.029-4.638-4.638-4.638zM76.68 55.651c-13.913 0-25.217 11.305-25.217 25.507 0 13.913 11.304 25.218 25.217 25.218 13.913 0 25.507-11.305 25.507-25.218 0-14.202-11.304-25.507-25.507-25.507zM34.072 319.13c-2.608 0-4.637 2.03-4.637 4.638 0 2.609 2.029 4.638 4.637 4.638 2.61 0 4.638-2.03 4.638-4.638 0-2.609-2.029-4.638-4.638-4.638zm39.13-1.159c-2.608 0-4.637 2.029-4.637 4.638 0 2.608 2.03 4.637 4.638 4.637 2.609 0 4.638-2.029 4.638-4.637 0-2.609-2.03-4.638-4.638-4.638zm38.262 0c-2.609 0-4.638 2.029-4.638 4.638 0 2.608 2.03 4.637 4.638 4.637s4.637-2.029 4.637-4.637c0-2.609-2.029-4.638-4.637-4.638zm38.55 0c-2.608 0-4.637 2.029-4.637 4.638 0 2.608 2.029 4.637 4.637 4.637 2.61 0 4.638-2.029 4.638-4.637 0-2.609-2.029-4.638-4.638-4.638zm0 0c-2.608 0-4.637 2.029-4.637 4.638 0 2.608 2.029 4.637 4.637 4.637 2.61 0 4.638-2.029 4.638-4.637 0-2.609-2.029-4.638-4.638-4.638zm-38.55 0c-2.609 0-4.638 2.029-4.638 4.638 0 2.608 2.03 4.637 4.638 4.637s4.637-2.029 4.637-4.637c0-2.609-2.029-4.638-4.637-4.638zM76.68 55.652c-13.913 0-25.217 11.305-25.217 25.507 0 13.913 11.304 25.218 25.217 25.218 13.913 0 25.507-11.305 25.507-25.218 0-14.202-11.304-25.507-25.507-25.507zm-3.478 262.319c-2.609 0-4.638 2.029-4.638 4.638 0 2.608 2.03 4.637 4.638 4.637 2.609 0 4.638-2.029 4.638-4.637 0-2.609-2.03-4.638-4.638-4.638zm-39.13 1.16c-2.61 0-4.638 2.028-4.638 4.637 0 2.609 2.029 4.638 4.637 4.638 2.61 0 4.638-2.03 4.638-4.638 0-2.609-2.029-4.638-4.638-4.638zM76.68 55.651c-13.913 0-25.217 11.305-25.217 25.507 0 13.913 11.304 25.218 25.217 25.218 13.913 0 25.507-11.305 25.507-25.218 0-14.202-11.304-25.507-25.507-25.507zM73.202 317.97c-2.609 0-4.638 2.029-4.638 4.638 0 2.608 2.03 4.637 4.638 4.637 2.609 0 4.638-2.029 4.638-4.637 0-2.609-2.03-4.638-4.638-4.638zm38.26 0c-2.608 0-4.637 2.029-4.637 4.638 0 2.608 2.03 4.637 4.638 4.637s4.637-2.029 4.637-4.637c0-2.609-2.029-4.638-4.637-4.638zm38.551 0c-2.608 0-4.637 2.029-4.637 4.638 0 2.608 2.029 4.637 4.637 4.637 2.61 0 4.638-2.029 4.638-4.637 0-2.609-2.029-4.638-4.638-4.638zm0 0c-2.608 0-4.637 2.029-4.637 4.638 0 2.608 2.029 4.637 4.637 4.637 2.61 0 4.638-2.029 4.638-4.637 0-2.609-2.029-4.638-4.638-4.638zm-38.55 0c-2.609 0-4.638 2.029-4.638 4.638 0 2.608 2.03 4.637 4.638 4.637s4.637-2.029 4.637-4.637c0-2.609-2.029-4.638-4.637-4.638zM76.68 55.652c-13.913 0-25.217 11.305-25.217 25.507 0 13.913 11.304 25.218 25.217 25.218 13.913 0 25.507-11.305 25.507-25.218 0-14.202-11.304-25.507-25.507-25.507zm-3.478 262.319c-2.609 0-4.638 2.029-4.638 4.638 0 2.608 2.03 4.637 4.638 4.637 2.609 0 4.638-2.029 4.638-4.637 0-2.609-2.03-4.638-4.638-4.638zM76.68 55.652c-13.913 0-25.217 11.305-25.217 25.507 0 13.913 11.304 25.218 25.217 25.218 13.913 0 25.507-11.305 25.507-25.218 0-14.202-11.304-25.507-25.507-25.507zm73.333 262.319c-2.608 0-4.637 2.029-4.637 4.638 0 2.608 2.029 4.637 4.637 4.637 2.61 0 4.638-2.029 4.638-4.637 0-2.609-2.029-4.638-4.638-4.638zm0 0c-2.608 0-4.637 2.029-4.637 4.638 0 2.608 2.029 4.637 4.637 4.637 2.61 0 4.638-2.029 4.638-4.637 0-2.609-2.029-4.638-4.638-4.638zM76.681 55.652c-13.913 0-25.217 11.305-25.217 25.507 0 13.913 11.304 25.218 25.217 25.218 13.913 0 25.507-11.305 25.507-25.218 0-14.202-11.304-25.507-25.507-25.507zm205.218 337.391c0-.29 0-.87-.29-2.318 0-.58 0-1.16-.29-1.45-.29-.29-.29-.58-.87-.58.58-.29.87-.58.87-1.159.29-.29.29-.87.29-1.449 0-.58 0-1.16-.29-1.74-.29-.579-.58-.869-1.16-1.159-.58-.29-1.159-.29-2.029-.29h-4.637v10.145h2.319v-4.057h1.739c.58 0 .87 0 1.16.29.289 0 .289.29.289.58 0 .289.29.869.29 1.738v.87c0 .29 0 .29.29.58h2.608c0 .58-.29.29-.29 0zm-2.61-5.507c-.289.29-.579.29-1.448.29h-1.74v-2.319h2.03c.58 0 1.159 0 1.449.29.29.29.29.58.29.87-.29.29-.29.58-.58.87zm2.61 5.507c0-.29 0-.87-.29-2.318 0-.58 0-1.16-.29-1.45-.29-.29-.29-.58-.87-.58.58-.29.87-.58.87-1.159.29-.29.29-.87.29-1.449 0-.58 0-1.16-.29-1.74-.29-.579-.58-.869-1.16-1.159-.58-.29-1.159-.29-2.029-.29h-4.637v10.145h2.319v-4.057h1.739c.58 0 .87 0 1.16.29.289 0 .289.29.289.58 0 .289.29.869.29 1.738v.87c0 .29 0 .29.29.58h2.608c0 .58-.29.29-.29 0zm-2.61-5.507c-.289.29-.579.29-1.448.29h-1.74v-2.319h2.03c.58 0 1.159 0 1.449.29.29.29.29.58.29.87-.29.29-.29.58-.58.87zm2.61 5.507c0-.29 0-.87-.29-2.318 0-.58 0-1.16-.29-1.45-.29-.29-.29-.58-.87-.58.58-.29.87-.58.87-1.159.29-.29.29-.87.29-1.449 0-.58 0-1.16-.29-1.74-.29-.579-.58-.869-1.16-1.159-.58-.29-1.159-.29-2.029-.29h-4.637v10.145h2.319v-4.057h1.739c.58 0 .87 0 1.16.29.289 0 .289.29.289.58 0 .289.29.869.29 1.738v.87c0 .29 0 .29.29.58h2.608c0 .58-.29.29-.29 0zm-2.61-5.507c-.289.29-.579.29-1.448.29h-1.74v-2.319h2.03c.58 0 1.159 0 1.449.29.29.29.29.58.29.87-.29.29-.29.58-.58.87zm2.61 5.507c0-.29 0-.87-.29-2.318 0-.58 0-1.16-.29-1.45-.29-.29-.29-.58-.87-.58.58-.29.87-.58.87-1.159.29-.29.29-.87.29-1.449 0-.58 0-1.16-.29-1.74-.29-.579-.58-.869-1.16-1.159-.58-.29-1.159-.29-2.029-.29h-4.637v10.145h2.319v-4.057h1.739c.58 0 .87 0 1.16.29.289 0 .289.29.289.58 0 .289.29.869.29 1.738v.87c0 .29 0 .29.29.58h2.608c0 .58-.29.29-.29 0zm-2.61-5.507c-.289.29-.579.29-1.448.29h-1.74v-2.319h2.03c.58 0 1.159 0 1.449.29.29.29.29.58.29.87-.29.29-.29.58-.58.87zm2.61 5.507c0-.29 0-.87-.29-2.318 0-.58 0-1.16-.29-1.45-.29-.29-.29-.58-.87-.58.58-.29.87-.58.87-1.159.29-.29.29-.87.29-1.449 0-.58 0-1.16-.29-1.74-.29-.579-.58-.869-1.16-1.159-.58-.29-1.159-.29-2.029-.29h-4.637v10.145h2.319v-4.057h1.739c.58 0 .87 0 1.16.29.289 0 .289.29.289.58 0 .289.29.869.29 1.738v.87c0 .29 0 .29.29.58h2.608c0 .58-.29.29-.29 0zm-2.61-5.507c-.289.29-.579.29-1.448.29h-1.74v-2.319h2.03c.58 0 1.159 0 1.449.29.29.29.29.58.29.87-.29.29-.29.58-.58.87zm2.61 5.507c0-.29 0-.87-.29-2.318 0-.58 0-1.16-.29-1.45-.29-.29-.29-.58-.87-.58.58-.29.87-.58.87-1.159.29-.29.29-.87.29-1.449 0-.58 0-1.16-.29-1.74-.29-.579-.58-.869-1.16-1.159-.58-.29-1.159-.29-2.029-.29h-4.637v10.145h2.319v-4.057h1.739c.58 0 .87 0 1.16.29.289 0 .289.29.289.58 0 .289.29.869.29 1.738v.87c0 .29 0 .29.29.58h2.608c0 .58-.29.29-.29 0zm-2.61-5.507c-.289.29-.579.29-1.448.29h-1.74v-2.319h2.03c.58 0 1.159 0 1.449.29.29.29.29.58.29.87-.29.29-.29.58-.58.87zm2.61 5.507c0-.29 0-.87-.29-2.318 0-.58 0-1.16-.29-1.45-.29-.29-.29-.58-.87-.58.58-.29.87-.58.87-1.159.29-.29.29-.87.29-1.449 0-.58 0-1.16-.29-1.74-.29-.579-.58-.869-1.16-1.159-.58-.29-1.159-.29-2.029-.29h-4.637v10.145h2.319v-4.057h1.739c.58 0 .87 0 1.16.29.289 0 .289.29.289.58 0 .289.29.869.29 1.738v.87c0 .29 0 .29.29.58h2.608c0 .58-.29.29-.29 0zm-2.61-5.507c-.289.29-.579.29-1.448.29h-1.74v-2.319h2.03c.58 0 1.159 0 1.449.29.29.29.29.58.29.87-.29.29-.29.58-.58.87zm2.61 5.507c0-.29 0-.87-.29-2.318 0-.58 0-1.16-.29-1.45-.29-.29-.29-.58-.87-.58.58-.29.87-.58.87-1.159.29-.29.29-.87.29-1.449 0-.58 0-1.16-.29-1.74-.29-.579-.58-.869-1.16-1.159-.58-.29-1.159-.29-2.029-.29h-4.637v10.145h2.319v-4.057h1.739c.58 0 .87 0 1.16.29.289 0 .289.29.289.58 0 .289.29.869.29 1.738v.87c0 .29 0 .29.29.58h2.608c0 .58-.29.29-.29 0zm-2.61-5.507c-.289.29-.579.29-1.448.29h-1.74v-2.319h2.03c.58 0 1.159 0 1.449.29.29.29.29.58.29.87-.29.29-.29.58-.58.87zm2.61 5.507c0-.29 0-.87-.29-2.318 0-.58 0-1.16-.29-1.45-.29-.29-.29-.58-.87-.58.58-.29.87-.58.87-1.159.29-.29.29-.87.29-1.449 0-.58 0-1.16-.29-1.74-.29-.579-.58-.869-1.16-1.159-.58-.29-1.159-.29-2.029-.29h-4.637v10.145h2.319v-4.057h1.739c.58 0 .87 0 1.16.29.289 0 .289.29.289.58 0 .289.29.869.29 1.738v.87c0 .29 0 .29.29.58h2.608c0 .58-.29.29-.29 0zm-2.61-5.507c-.289.29-.579.29-1.448.29h-1.74v-2.319h2.03c.58 0 1.159 0 1.449.29.29.29.29.58.29.87-.29.29-.29.58-.58.87zm2.61 5.507c0-.29 0-.87-.29-2.318 0-.58 0-1.16-.29-1.45-.29-.29-.29-.58-.87-.58.58-.29.87-.58.87-1.159.29-.29.29-.87.29-1.449 0-.58 0-1.16-.29-1.74-.29-.579-.58-.869-1.16-1.159-.58-.29-1.159-.29-2.029-.29h-4.637v10.145h2.319v-4.057h1.739c.58 0 .87 0 1.16.29.289 0 .289.29.289.58 0 .289.29.869.29 1.738v.87c0 .29 0 .29.29.58h2.608c0 .58-.29.29-.29 0zm-2.61-5.507c-.289.29-.579.29-1.448.29h-1.74v-2.319h2.03c.58 0 1.159 0 1.449.29.29.29.29.58.29.87-.29.29-.29.58-.58.87zm2.61 5.507c0-.29 0-.87-.29-2.318 0-.58 0-1.16-.29-1.45-.29-.29-.29-.58-.87-.58.58-.29.87-.58.87-1.159.29-.29.29-.87.29-1.449 0-.58 0-1.16-.29-1.74-.29-.579-.58-.869-1.16-1.159-.58-.29-1.159-.29-2.029-.29h-4.637v10.145h2.319v-4.057h1.739c.58 0 .87 0 1.16.29.289 0 .289.29.289.58 0 .289.29.869.29 1.738v.87c0 .29 0 .29.29.58h2.608c0 .58-.29.29-.29 0zm-2.61-5.507c-.289.29-.579.29-1.448.29h-1.74v-2.319h2.03c.58 0 1.159 0 1.449.29.29.29.29.58.29.87-.29.29-.29.58-.58.87zm2.61 5.507c0-.29 0-.87-.29-2.318 0-.58 0-1.16-.29-1.45-.29-.29-.29-.58-.87-.58.58-.29.87-.58.87-1.159.29-.29.29-.87.29-1.449 0-.58 0-1.16-.29-1.74-.29-.579-.58-.869-1.16-1.159-.58-.29-1.159-.29-2.029-.29h-4.637v10.145h2.319v-4.057h1.739c.58 0 .87 0 1.16.29.289 0 .289.29.289.58 0 .289.29.869.29 1.738v.87c0 .29 0 .29.29.58h2.608c0 .58-.29.29-.29 0zm-2.61-5.507c-.289.29-.579.29-1.448.29h-1.74v-2.319h2.03c.58 0 1.159 0 1.449.29.29.29.29.58.29.87-.29.29-.29.58-.58.87zm6.668-3.768a9.992 9.992 0 0 0-3.479-3.478c-1.449-.87-2.898-1.16-4.637-1.16-1.74 0-3.189.58-4.638 1.16a9.992 9.992 0 0 0-3.478 3.478c-.87 1.45-1.16 2.899-1.16 4.638 0 1.739.58 3.188 1.16 4.637a9.992 9.992 0 0 0 3.478 3.479c1.45.87 2.898 1.16 4.638 1.16 1.739 0 3.188-.29 4.637-1.16a9.992 9.992 0 0 0 3.479-3.479c.87-1.449 1.159-2.898 1.159-4.637 0-1.45-.58-3.189-1.16-4.638zm-1.74 8.406a5.688 5.688 0 0 1-2.608 2.609c-1.16.58-2.32.87-3.768.87-1.45 0-2.61-.29-3.769-1.16a5.688 5.688 0 0 1-2.608-2.609c-.58-1.16-.87-2.319-.87-3.768 0-2.029.58-3.768 2.319-5.217 1.45-1.45 3.188-2.03 5.217-2.03 2.03 0 3.769.58 5.218 2.03 1.45 1.449 2.029 3.188 2.029 5.217-.29 1.74-.58 2.898-1.16 4.058zm-2.318-1.45c0-.58 0-1.159-.29-1.449-.29-.29-.29-.58-.87-.58.58-.29.87-.58.87-1.159.29-.29.29-.87.29-1.449 0-.58 0-1.16-.29-1.74-.29-.579-.58-.869-1.16-1.159-.58-.29-1.16-.29-2.029-.29h-4.637v10.145h2.318v-4.057h1.74c.58 0 .87 0 1.159.29.29 0 .29.29.29.58 0 .289.29.869.29 1.738v.87c0 .29 0 .29.29.58h2.608l-.58-.58v-1.74zm-2.61-3.188c-.289.29-.579.29-1.448.29h-1.74v-2.319h2.03c.58 0 1.159 0 1.449.29.29.29.29.58.29.87-.29.29-.29.58-.58.87zm2.61 5.507c0-.29 0-.87-.29-2.318 0-.58 0-1.16-.29-1.45-.29-.29-.29-.58-.87-.58.58-.29.87-.58.87-1.159.29-.29.29-.87.29-1.449 0-.58 0-1.16-.29-1.74-.29-.579-.58-.869-1.16-1.159-.58-.29-1.159-.29-2.029-.29h-4.637v10.145h2.319v-4.057h1.739c.58 0 .87 0 1.16.29.289 0 .289.29.289.58 0 .289.29.869.29 1.738v.87c0 .29 0 .29.29.58h2.608c0 .58-.29.29-.29 0zm-2.61-5.507c-.289.29-.579.29-1.448.29h-1.74v-2.319h2.03c.58 0 1.159 0 1.449.29.29.29.29.58.29.87-.29.29-.29.58-.58.87zm2.61 5.507c0-.29 0-.87-.29-2.318 0-.58 0-1.16-.29-1.45-.29-.29-.29-.58-.87-.58.58-.29.87-.58.87-1.159.29-.29.29-.87.29-1.449 0-.58 0-1.16-.29-1.74-.29-.579-.58-.869-1.16-1.159-.58-.29-1.159-.29-2.029-.29h-4.637v10.145h2.319v-4.057h1.739c.58 0 .87 0 1.16.29.289 0 .289.29.289.58 0 .289.29.869.29 1.738v.87c0 .29 0 .29.29.58h2.608c0 .58-.29.29-.29 0zm-2.61-5.507c-.289.29-.579.29-1.448.29h-1.74v-2.319h2.03c.58 0 1.159 0 1.449.29.29.29.29.58.29.87-.29.29-.29.58-.58.87zm2.61 5.507c0-.29 0-.87-.29-2.318 0-.58 0-1.16-.29-1.45-.29-.29-.29-.58-.87-.58.58-.29.87-.58.87-1.159.29-.29.29-.87.29-1.449 0-.58 0-1.16-.29-1.74-.29-.579-.58-.869-1.16-1.159-.58-.29-1.159-.29-2.029-.29h-4.637v10.145h2.319v-4.057h1.739c.58 0 .87 0 1.16.29.289 0 .289.29.289.58 0 .289.29.869.29 1.738v.87c0 .29 0 .29.29.58h2.608c0 .58-.29.29-.29 0zm-2.61-5.507c-.289.29-.579.29-1.448.29h-1.74v-2.319h2.03c.58 0 1.159 0 1.449.29.29.29.29.58.29.87-.29.29-.29.58-.58.87zm2.61 5.507c0-.29 0-.87-.29-2.318 0-.58 0-1.16-.29-1.45-.29-.29-.29-.58-.87-.58.58-.29.87-.58.87-1.159.29-.29.29-.87.29-1.449 0-.58 0-1.16-.29-1.74-.29-.579-.58-.869-1.16-1.159-.58-.29-1.159-.29-2.029-.29h-4.637v10.145h2.319v-4.057h1.739c.58 0 .87 0 1.16.29.289 0 .289.29.289.58 0 .289.29.869.29 1.738v.87c0 .29 0 .29.29.58h2.608c0 .58-.29.29-.29 0zm-2.61-5.507c-.289.29-.579.29-1.448.29h-1.74v-2.319h2.03c.58 0 1.159 0 1.449.29.29.29.29.58.29.87-.29.29-.29.58-.58.87zm2.61 5.507c0-.29 0-.87-.29-2.318 0-.58 0-1.16-.29-1.45-.29-.29-.29-.58-.87-.58.58-.29.87-.58.87-1.159.29-.29.29-.87.29-1.449 0-.58 0-1.16-.29-1.74-.29-.579-.58-.869-1.16-1.159-.58-.29-1.159-.29-2.029-.29h-4.637v10.145h2.319v-4.057h1.739c.58 0 .87 0 1.16.29.289 0 .289.29.289.58 0 .289.29.869.29 1.738v.87c0 .29 0 .29.29.58h2.608c0 .58-.29.29-.29 0zm-2.61-5.507c-.289.29-.579.29-1.448.29h-1.74v-2.319h2.03c.58 0 1.159 0 1.449.29.29.29.29.58.29.87-.29.29-.29.58-.58.87zm2.61 5.507c0-.29 0-.87-.29-2.318 0-.58 0-1.16-.29-1.45-.29-.29-.29-.58-.87-.58.58-.29.87-.58.87-1.159.29-.29.29-.87.29-1.449 0-.58 0-1.16-.29-1.74-.29-.579-.58-.869-1.16-1.159-.58-.29-1.159-.29-2.029-.29h-4.637v10.145h2.319v-4.057h1.739c.58 0 .87 0 1.16.29.289 0 .289.29.289.58 0 .289.29.869.29 1.738v.87c0 .29 0 .29.29.58h2.608c0 .58-.29.29-.29 0zm-2.61-5.507c-.289.29-.579.29-1.448.29h-1.74v-2.319h2.03c.58 0 1.159 0 1.449.29.29.29.29.58.29.87-.29.29-.29.58-.58.87zm2.61 5.507c0-.29 0-.87-.29-2.318 0-.58 0-1.16-.29-1.45-.29-.29-.29-.58-.87-.58.58-.29.87-.58.87-1.159.29-.29.29-.87.29-1.449 0-.58 0-1.16-.29-1.74-.29-.579-.58-.869-1.16-1.159-.58-.29-1.159-.29-2.029-.29h-4.637v10.145h2.319v-4.057h1.739c.58 0 .87 0 1.16.29.289 0 .289.29.289.58 0 .289.29.869.29 1.738v.87c0 .29 0 .29.29.58h2.608c0 .58-.29.29-.29 0zm-2.61-5.507c-.289.29-.579.29-1.448.29h-1.74v-2.319h2.03c.58 0 1.159 0 1.449.29.29.29.29.58.29.87-.29.29-.29.58-.58.87zm2.61 5.507c0-.29 0-.87-.29-2.318 0-.58 0-1.16-.29-1.45-.29-.29-.29-.58-.87-.58.58-.29.87-.58.87-1.159.29-.29.29-.87.29-1.449 0-.58 0-1.16-.29-1.74-.29-.579-.58-.869-1.16-1.159-.58-.29-1.159-.29-2.029-.29h-4.637v10.145h2.319v-4.057h1.739c.58 0 .87 0 1.16.29.289 0 .289.29.289.58 0 .289.29.869.29 1.738v.87c0 .29 0 .29.29.58h2.608c0 .58-.29.29-.29 0zm-2.61-5.507c-.289.29-.579.29-1.448.29h-1.74v-2.319h2.03c.58 0 1.159 0 1.449.29.29.29.29.58.29.87-.29.29-.29.58-.58.87zm2.61 5.507c0-.29 0-.87-.29-2.318 0-.58 0-1.16-.29-1.45-.29-.29-.29-.58-.87-.58.58-.29.87-.58.87-1.159.29-.29.29-.87.29-1.449 0-.58 0-1.16-.29-1.74-.29-.579-.58-.869-1.16-1.159-.58-.29-1.159-.29-2.029-.29h-4.637v10.145h2.319v-4.057h1.739c.58 0 .87 0 1.16.29.289 0 .289.29.289.58 0 .289.29.869.29 1.738v.87c0 .29 0 .29.29.58h2.608c0 .58-.29.29-.29 0zm-2.61-5.507c-.289.29-.579.29-1.448.29h-1.74v-2.319h2.03c.58 0 1.159 0 1.449.29.29.29.29.58.29.87-.29.29-.29.58-.58.87zm2.61 5.507c0-.29 0-.87-.29-2.318 0-.58 0-1.16-.29-1.45-.29-.29-.29-.58-.87-.58.58-.29.87-.58.87-1.159.29-.29.29-.87.29-1.449 0-.58 0-1.16-.29-1.74-.29-.579-.58-.869-1.16-1.159-.58-.29-1.159-.29-2.029-.29h-4.637v10.145h2.319v-4.057h1.739c.58 0 .87 0 1.16.29.289 0 .289.29.289.58 0 .289.29.869.29 1.738v.87c0 .29 0 .29.29.58h2.608c0 .58-.29.29-.29 0zm-2.61-5.507c-.289.29-.579.29-1.448.29h-1.74v-2.319h2.03c.58 0 1.159 0 1.449.29.29.29.29.58.29.87-.29.29-.29.58-.58.87z" fill="#3A3A3A"/>
</svg>