<?xml version="1.0" encoding="utf-8"?>
<svg xmlns="http://www.w3.org/2000/svg" height="132" width="400">
  <g fill="#3A3A3A" fill-rule="evenodd">
    <path d="M156.571 69.286c0 10.971-8.228 19.885-18.4 19.885-10.171 0-18.4-8.914-18.4-19.885 0-10.972 8.229-19.886 18.4-19.886 10.058 0 18.4 8.914 18.4 19.886zM138.057 36.37c-18.4 0-33.257 14.743-33.257 33.029s14.857 33.029 33.257 33.029 33.257-14.743 33.257-33.029c0-18.171-14.857-33.029-33.257-33.029zm89.714 32.916c0 10.971-8.228 19.885-18.4 19.885-10.171 0-18.4-8.914-18.4-19.885 0-10.972 8.229-19.886 18.4-19.886 10.172 0 18.4 8.914 18.4 19.886zm-18.4-32.915c-18.4 0-33.257 14.743-33.257 33.029s14.857 33.029 33.257 33.029S242.63 87.686 242.63 69.4c-.115-18.171-14.972-33.029-33.258-33.029zM320 3.8h13.371v96.457H320z" fill-rule="nonzero"/>
    <path d="M76.114 24.486c-3.314-3.086-7.2-5.6-11.543-7.315a37.233 37.233 0 0 0-13.485-2.514c-10.172 0-19.2 4.114-25.829 10.629C18.63 31.914 14.63 41.057 14.63 51.229c0 10.171 4.114 19.314 10.628 25.942C31.771 83.8 40.914 87.8 51.086 87.8h.571c9.943-.114 18.286-3.2 24-8.8 4.457-4.343 8.8-10.4 9.829-18.971H51.314V46.657h47.772l.114 7.086v.686c0 14.857-4.914 26.628-13.371 34.971-8.458 8.229-20.229 12.8-34.058 12.914h-.685c.228 0 .914 0 0 0-14.172 0-26.857-5.714-36.115-14.971C5.714 78.2 0 65.4 0 51.229 0 37.057 5.714 24.257 14.971 15 24.23 5.743 36.914.029 51.086.029A51.695 51.695 0 0 1 69.943 3.57C76 5.971 81.486 9.514 86.17 13.857L76.114 24.486zm-25.143 77.943c-.114 0 0 0 0 0zm48.115-47.772c0 .114 0 0 0 0zm0 0c0-.228 0-.914 0 0zm254.628 13.257l29.715-12c-5.258-6.743-12.8-9.943-22.858-3.2-3.885 3.315-7.314 8.915-6.857 15.2zM355.886 79c5.485 13.029 24.8 13.257 32.114 1.029l11.086 7.428c-6.743 9.943-16.572 14.514-27.315 14.629-9.6 0-17.257-3.543-22.971-9.372-14.057-14.171-10.971-35.885-1.257-46.171 7.886-8.457 20.114-12.686 32.8-8.114C388.57 41.4 395.2 48.6 400 61.17 385.257 67 370.629 73.057 355.886 79z"/>
    <path d="M297.714 37.857v6.857c-4.914-5.143-11.314-8.343-17.828-8.343C261.829 36.371 248 51.114 248 69.4s13.829 33.029 31.886 33.029c6.743 0 13.028-3.086 17.828-8v7.428c0 10.743-9.028 17.143-16 17.143-9.828 0-15.2-4-18.743-11.886l-12.457 5.6c2.972 6.629 7.315 11.315 12.457 14.4 5.715 3.543 12.229 4.8 18.743 4.8 7.086 0 14.4-2.971 19.772-7.771 5.6-4.914 9.714-14.4 9.714-23.2V37.857h-13.486zm-17.143 51.314c-10.171 0-18.4-8.914-18.4-19.885 0-10.972 8.229-19.886 18.4-19.886 7.772 0 14.286 5.143 17.029 12.343.229.571.457 1.143.571 1.828.115.343.115.572.229.915.114.343.114.571.229.914v.114c0 .229.114.572.114.8v.229c0 .228.114.457.114.686v4.114c0 .228 0 .457-.114.686v.228c0 .229-.114.572-.114.8v.114c0 .343-.115.572-.229.915v.114c-.114.343-.114.571-.229.914-.114.572-.342 1.143-.571 1.829-2.629 7.086-9.257 12.228-17.029 12.228z" fill-rule="nonzero"/>
  </g>
</svg>