<?xml version="1.0" encoding="utf-8"?>
<svg xmlns="http://www.w3.org/2000/svg" viewBox="0 0 933.34 202.18">
  <defs>
    <style>.cls-1{fill:#002659;}.cls-2{fill:#cdbc32;}</style>
  </defs>
  <g data-name="Layer 2" id="Layer_2">
    <path class="cls-1" d="M145.82,71.62h11.41V87C163.46,77.85,172.5,70,186.58,70,205,70,223.2,84.52,223.2,109.73V110c0,25.06-18.08,39.88-36.62,39.88-14.23,0-23.42-7.71-29.35-16.31V172H145.82Zm65.67,38.55v-.3c0-18.08-12.45-29.65-27-29.65-14.23,0-27.72,12-27.72,29.51V110c0,17.79,13.49,29.65,27.72,29.65C199.33,139.67,211.49,128.7,211.49,110.17Z"/>
    <path class="cls-1" d="M244.27,71.62h11.41v20C261.31,78.89,272.43,69.7,287,70.29v12.3h-.89c-16.75,0-30.39,12-30.39,35.14v30.54H244.27Z"/>
    <path class="cls-1" d="M304.61,47.56h13.05V60.17H304.61Zm.75,24.06h11.41v76.65H305.36Z"/>
    <path class="cls-1" d="M343.31,71.62h11.42v12.9C359.77,77,366.59,70,379.48,70c12.46,0,20.46,6.67,24.62,15.27,5.48-8.45,13.63-15.27,27-15.27,17.64,0,28.46,11.86,28.46,30.84v47.44H448.13V103.5c0-14.83-7.42-23.13-19.87-23.13-11.56,0-21.05,8.6-21.05,23.72v44.18H395.79V103.2c0-14.38-7.56-22.83-19.71-22.83s-21.35,10.08-21.35,24.16v43.74H343.31Z"/>
    <path class="cls-1" d="M479.57,110.32V110a40,40,0,0,1,79.91-.29V110a39.8,39.8,0,0,1-40.18,40C496.33,150.05,479.57,132,479.57,110.32Zm68.2,0V110c0-16.46-12.3-29.95-28.47-29.95-16.6,0-28,13.49-28,29.66V110c0,16.46,12.15,29.8,28.31,29.8C536.21,139.82,547.77,126.48,547.77,110.32Z"/>
    <path class="cls-1" d="M580.1,71.62h11.42V87C597.74,77.85,606.79,70,620.87,70c18.39,0,36.62,14.53,36.62,39.74V110c0,25.06-18.09,39.88-36.62,39.88-14.23,0-23.42-7.71-29.35-16.31V172H580.1Zm65.68,38.55v-.3c0-18.08-12.45-29.65-27-29.65-14.24,0-27.73,12-27.73,29.51V110c0,17.79,13.49,29.65,27.73,29.65C633.62,139.67,645.78,128.7,645.78,110.17Z"/>
    <path class="cls-1" d="M678.55,71.62H690v20c5.63-12.75,16.75-21.94,31.28-21.35v12.3h-.89c-16.75,0-30.39,12-30.39,35.14v30.54H678.55Z"/>
    <path class="cls-1" d="M738.9,47.56H752V60.17H738.9Zm.74,24.06h11.42v76.65H739.64Z"/>
    <path class="cls-1" d="M777.6,71.62H789V85c5-8.31,13-15,26.24-15,18.54,0,29.36,12.45,29.36,30.69v47.59H833.19V103.5c0-14.24-7.71-23.13-21.2-23.13-13.19,0-23,9.63-23,24v43.88H777.6Z"/>
    <path class="cls-1" d="M872.94,128V81.7H862.26V71.62h10.68V47.44h11.41V71.62h24.31V81.7H884.35v44.78c0,9.34,5.19,12.75,12.9,12.75a24.11,24.11,0,0,0,11.12-2.67v9.78a28.65,28.65,0,0,1-13.79,3.27C882.28,149.61,872.94,143.52,872.94,128Z"/>
    <circle class="cls-2" cx="63.02" cy="129.34" r="20.44"/>
    <rect class="cls-2" height="59" width="40.87" x="42.58" y="70.34"/>
    <circle class="cls-2" cx="101.59" cy="90.77" r="20.44"/>
    <rect class="cls-2" height="59" transform="translate(-18.68 162.86) rotate(-90)" width="40.87" x="51.65" y="61.27"/>
    <path class="cls-1" d="M895.38,54.14v0a6.63,6.63,0,1,1,13.26,0v0a6.63,6.63,0,1,1-13.26,0Zm12.5,0v0a5.87,5.87,0,1,0-11.74,0v0A5.83,5.83,0,0,0,902,60,5.89,5.89,0,0,0,907.88,54.1Zm-8.35-3.46h3c1.38,0,2.48.72,2.48,2a2,2,0,0,1-1.64,2l1.87,2.59h-1.33l-1.68-2.44h-1.6V57.3h-1.07ZM902.39,54c1,0,1.49-.5,1.49-1.22s-.58-1.18-1.49-1.18H900.6V54Z"/>
  </g>
</svg>