<?xml version="1.0" encoding="utf-8"?>
<svg xmlns="http://www.w3.org/2000/svg" height="298" width="398">
  <g fill="#3A3A3A" fill-rule="evenodd">
    <path d="M42.774 194.15c0-4.15-2.83-6.603-12.83-10.376-10.567-4.34-17.736-9.057-17.736-18.491 0-13.019 11.698-21.698 26.603-21.698 10.755 0 16.981 3.396 21.51 6.792 1.51 1.132 2.83 2.642 2.83 5.095 0 3.396-2.642 5.849-5.85 5.849-1.32 0-2.64-.378-3.584-1.321-4.717-3.774-9.245-5.85-15.66-5.85-8.114 0-12.83 4.53-12.83 9.058s3.396 6.603 13.396 10.566c10.566 4.15 17.17 8.868 17.17 18.49 0 13.585-12.265 22.076-26.982 22.076-9.056 0-18.679-2.453-25.66-8.868-1.32-1.132-2.453-3.02-2.453-5.095 0-3.396 2.453-6.037 5.85-6.037 1.697 0 3.207.754 3.961 1.51 5.66 5.282 10.755 7.735 18.68 7.735 7.924 0 13.585-3.774 13.585-9.434m73.773-33.208c3.774 0 5.85 2.83 4.528 7.359l-10.566 39.623c-.943 3.584-3.584 5.66-6.415 5.66-3.773 0-6.037-2.83-4.717-7.359l6.415-23.962-12.83 13.962c-1.887 2.076-3.962 3.397-6.226 3.397-2.642 0-3.774-1.321-4.906-4.151l-4.905-13.02-6.982 25.661c-.943 3.585-3.396 5.66-6.415 5.66-3.773 0-5.849-2.83-4.528-7.358l10.566-39.623c.943-3.584 3.019-5.849 6.604-5.849h.755c3.018 0 4.717 1.699 5.849 4.717l7.924 20.755L109 164.528c2.075-2.264 3.962-3.585 6.792-3.585h.755zm48.491 23.397c0-7.736-4.717-13.208-13.208-13.208-10.943 0-18.113 10.566-18.113 19.434 0 7.736 4.717 13.208 13.208 13.208 10.943 0 18.113-10.566 18.113-19.434m-43.208 6.98c0-15.47 12.642-30.754 31.32-30.754 14.34 0 23.775 10 23.775 23.019 0 15.472-12.642 30.755-31.321 30.755-14.34 0-23.774-10-23.774-23.02m102.83-6.98c0-7.736-4.717-13.208-13.207-13.208-10.944 0-18.113 10.566-18.113 19.434 0 7.736 4.717 13.208 13.207 13.208 10.944 0 18.113-10.566 18.113-19.434m-43.207 6.98c0-15.47 12.641-30.754 31.32-30.754 14.34 0 23.774 10 23.774 23.019 0 15.472-12.641 30.755-31.32 30.755-14.34 0-23.774-10-23.774-23.02m72.641 16.793c-.943 3.585-3.396 5.66-6.415 5.66-3.773 0-5.849-2.83-4.528-7.358l9.245-34.528h-9.434c-2.83 0-5.283-2.453-5.283-5.283 0-2.83 2.453-5.283 5.283-5.283h33.396c2.83 0 5.284 2.453 5.284 5.283 0 2.83-2.453 5.283-5.284 5.283h-12.452l-9.812 36.226zm66.416 0c-.944 3.585-3.397 5.66-6.416 5.66-3.773 0-5.849-2.83-4.528-7.358l3.774-13.962h-20.755l-4.151 15.66c-.943 3.585-3.396 5.66-6.415 5.66-3.774 0-5.85-2.83-4.717-7.358l10.755-39.811c.943-3.585 3.396-5.66 6.415-5.66 3.773 0 5.849 2.83 4.528 7.358l-3.585 13.585h20.755l4.15-15.283c.944-3.585 3.397-5.66 6.416-5.66 3.773 0 5.849 2.83 4.528 7.358l-10.755 39.811zm19.056 0c-.943 3.585-3.396 5.66-6.415 5.66-3.774 0-5.85-2.83-4.528-7.358l10.754-39.811c.944-3.585 3.397-5.66 6.415-5.66 3.774 0 5.85 2.83 4.529 7.358l-10.755 39.811zm12.453 5.283c-3.774 0-5.85-2.83-4.528-7.358l10.377-38.868c.943-3.585 3.396-5.66 6.415-5.66h27.925a5.073 5.073 0 0 1 5.094 5.094 5.073 5.073 0 0 1-5.094 5.094h-24.151l-2.83 10.566h18.113a5.073 5.073 0 0 1 5.094 5.094c0 2.83-2.264 4.906-5.094 4.906h-20.755l-3.019 10.944h21.887a5.073 5.073 0 0 1 5.094 5.094 5.073 5.073 0 0 1-5.094 5.094h-29.434zM127.868 66.415c7.358-2.83 22.264 24.528 35.849 22.642 21.698-3.208 21.51-49.246 36.415-50.378 15.094-1.32 20.755 61.887 35.094 64.906 14.34 3.019 39.246-40.943 47.925-37.547 7.736 3.019-3.585 53.396 4.717 54.905 8.302 1.51 17.358-14.34 18.868-6.037 1.51 8.302-2.264 24.15-9.811 26.415-7.548 2.264-11.321-8.302-29.434-11.321-18.114-3.019-24.717 19.623-37.925 17.925-18.68-2.453-27.547-46.038-39.057-43.397-11.698 2.83.19 35.283-14.717 38.302-12.83 2.264-25.66-30.377-34.528-26.415-7.736 3.396-2.075 22.453-9.056 17.547-6.793-4.717-16.038-62.453-4.34-67.547m-12.453-23.962c-.755-5.66 2.642-10.755 7.736-11.132 5.094-.378 9.811 3.962 10.566 9.811.755 5.66-1.51 16.981-6.604 17.359-5.283.377-10.943-10.378-11.698-16.038m76.038-34.151c.377-5.283 5.66-8.868 11.51-7.925 5.848.944 10.188 6.038 9.81 11.321-.377 5.283-6.603 17.547-12.452 16.604-5.85-.944-9.246-14.717-8.868-20m90.566 30.566c2.075-5.472 6.981-7.359 11.887-5.85 4.905 1.51 7.547 6.605 6.037 11.322-1.698 4.717-9.245 15.471-14.717 13.585-5.094-1.699-4.905-14.34-3.207-19.057M107.49 289.245c-.943 3.774-3.584 6.038-6.792 6.038-3.962 0-6.415-2.83-5.094-7.925l15.283-57.17c1.132-3.773 3.773-6.037 6.98-6.037 3.963 0 6.227 2.83 5.095 7.924L115.415 260l40.566-33.585c1.51-1.32 3.019-2.264 5.094-2.264 3.585 0 5.66 2.453 5.66 5.472 0 1.886-.754 3.396-2.263 4.528l-26.038 21.132 14.34 30.189c.754 1.51.943 2.83.943 4.15 0 3.397-3.019 5.472-6.038 5.472-3.396 0-5.283-1.886-6.226-4.34l-13.019-28.679-17.359 13.774-3.584 13.396zm114.906-41.132c.944-3.585 3.396-5.66 6.227-5.66 3.773 0 5.849 2.83 4.528 7.358l-10.755 40c-.943 3.397-2.83 5.283-6.226 5.283h-.189c-3.585 0-5.283-1.51-6.604-4.34l-13.962-30-7.736 28.869c-.943 3.585-3.396 5.66-6.226 5.66-3.774 0-5.85-2.83-4.528-7.358l10.566-39.623c.943-3.585 3.396-5.66 6.792-5.66h.566c3.396 0 5.472 1.698 6.604 4.528l13.207 28.868 7.736-27.925zm56.415 37.925c-.754 2.641-2.075 4.528-4.528 6.037-2.83 1.51-8.868 3.208-15.472 3.208-11.886 0-24.528-7.17-24.528-22.641 0-16.227 13.774-31.321 32.453-31.321 8.68 0 15.094 2.83 18.113 5.849 1.132 1.132 2.264 2.453 2.264 4.528 0 3.208-2.453 5.66-5.66 5.66-1.698 0-2.83-.566-3.585-1.132-3.396-2.641-6.604-4.34-12.076-4.34-11.132 0-19.81 9.623-19.81 20.378 0 8.113 6.037 12.453 13.395 12.453 3.963 0 6.981-.943 9.246-2.075l2.452-8.491h-6.415c-2.83 0-4.905-2.076-4.905-4.906 0-2.83 2.264-4.905 4.905-4.905h13.397c3.773 0 5.849 2.83 4.528 7.358l-3.774 14.34zm-109.434 3.396c-.943 3.585-3.396 5.66-6.415 5.66-3.773 0-5.849-2.83-4.528-7.358l6.604-24.717c.943-3.585 3.396-5.66 6.415-5.66 3.773 0 5.849 2.83 4.528 7.358l-6.604 24.717zm1.321-50.944c1.32-3.773 4.717-5.094 8.113-3.962 3.397 1.132 5.283 4.529 4.151 7.736-1.132 3.208-6.226 10.566-10 9.434-3.396-1.32-3.396-10-2.264-13.207" fill-rule="nonzero"/>
    <path d="M284.283 288.68c4.906-1.133 7.17 4.339 4.906 7.546-1.51 2.076-5.095 2.265-7.17.566-2.642-2.641-.944-7.547 2.264-8.113zm3.208 7.735c1.32-.755 2.264-4.34.566-6.226-.755-.755-1.699-.944-3.02-.755-6.226.755-2.263 10.377 2.454 6.981z"/>
    <path d="M283.528 290.189c1.698 0 3.397-.189 4.151.754.189 1.321-.377 1.887-.754 2.453 0 1.132 1.132.944 1.132 2.264-1.887.378-1.51-1.698-2.642-2.264-.755.566.189 1.51 0 2.264h-1.698c.189-1.51.189-3.962-.189-5.471zm1.321 2.83c1.132 0 1.887-.377 1.698-1.698-.377-.378-.943-.378-1.698-.189v1.887z"/>
  </g>
</svg>