<?xml version="1.0" encoding="utf-8"?>
<svg xmlns="http://www.w3.org/2000/svg" id="Layer_1" viewBox="0 0 400 177">
  <path d="M57 31.2c-30.4 0-55 25.3-55 56.4C2 118.8 26.6 144 57 144s55-25.3 55-56.4c0-31.1-24.6-56.4-55-56.4zM82.9 74c-.8-.5-1.6-.7-2.5-.7-.9 0-1.6.2-2.2.7-.5.5-.9 1.1-1.1 2-.2.6-.2 1.7-.3 3.3h6V93H77v22.9H59.3V93H51v22.9H33.3V93h-4.8V79.2h4.8c0-5.4.4-9.3 1.2-11.6.8-2.4 2.5-4.4 4.9-6 2.4-1.7 5.6-2.5 9.4-2.5 2.4 0 5.1.3 8 1V74c-.8-.5-1.6-.7-2.5-.7-.9 0-1.6.2-2.2.7-.5.5-.9 1.1-1.1 2-.1.6-.2 1.7-.2 3.3h8.4c0-5.4.4-9.3 1.2-11.6.8-2.4 2.5-4.4 4.9-6 2.5-1.7 5.6-2.5 9.4-2.5 2.4 0 5.1.3 8 1V74z" fill="#3a3a3a"/>
  <path d="M120.1 70.8v37.7h13.5V95.3h9.9v-9.9h-9.9v-3.8h11.2V70.8h-24.7zM173.6 93.6c1.1-.3 1.9-.6 2.6-1.1.7-.4 1.4-1 2-1.8.6-.8 1.2-1.8 1.6-3 .4-1.2.6-2.6.6-4 0-2.2-.5-4.2-1.4-5.8-.9-1.7-2.1-3-3.5-4.1-1.4-1.1-3.1-1.8-4.9-2.3-1.8-.4-4.4-.6-7.7-.6h-14.5v37.7h13.3V96l6.2 12.5h15.6l-9.9-14.9zm-7.8-6.4c-.5.3-1.6.5-3.2.5h-.9v-6.4h1c1.8 0 3 .3 3.6.8.6.5.9 1.3.9 2.4.1 1.1-.4 2.1-1.4 2.7zM184.5 70.8v37.7h25.3V98.3h-11.9v-3.9h10.5v-9.7h-10.5V81h11.5V70.8h-24.9zM212.8 70.8v37.7h25.3V98.3h-11.9v-3.9h10.5v-9.7h-10.5V81h11.4V70.8h-24.8zM242 70.8v37.7h13.6V95.3h9.8v-9.9h-9.8v-3.8h11.2V70.8H242zM304.7 75.6c-3.8-3.7-8.7-5.6-14.8-5.6-3.1 0-5.9.5-8.5 1.4-2.6.9-4.8 2.4-6.7 4.4-1.9 1.9-3.3 4.2-4.2 6.8-.9 2.6-1.4 5-1.4 7.3 0 2.9.6 5.7 1.6 8.3.7 1.8 1.9 3.6 3.5 5.2 1.5 1.7 3.4 3 5.5 4 2.9 1.4 6.2 2.1 10 2.1 6.2 0 11.2-1.8 15-5.5 3.8-3.7 5.7-8.4 5.7-14.2 0-5.8-1.9-10.5-5.7-14.2zm-10.1 19.5c-1.3 1.3-2.9 2-4.9 2-1.9 0-3.5-.6-4.8-1.9-1.3-1.3-1.9-3-1.9-5.1 0-2.3.7-4.2 2-5.5 1.3-1.4 2.9-2.1 4.9-2.1 1.9 0 3.5.7 4.8 2.1 1.3 1.4 1.9 3.2 1.9 5.4-.1 2-.7 3.7-2 5.1zM347.5 107l-9-13.5c1-.3 1.9-.6 2.6-1.1.7-.4 1.4-1 2-1.8.6-.8 1.2-1.8 1.6-3 .4-1.2.6-2.6.6-4 0-2.2-.5-4.2-1.4-5.8-.9-1.7-2.1-3-3.5-4.1-1.4-1.1-3.1-1.8-4.9-2.3-1.8-.4-4.4-.6-7.7-.6h-14.5v37.7h13.3V96l6.2 12.5h15.6l-.9-1.5zm-16.8-19.8c-.5.3-1.6.5-3.1.5h-.9v-6.4h1c1.8 0 3 .3 3.6.8.6.5.9 1.3.9 2.4 0 1.1-.5 2.1-1.5 2.7z" fill="#3a3a3a"/>
  <path d="M353.6 70.8l-6.4 37.7h13.2l2.1-20.1 6 20.1h8l6.4-20.1 1.8 20.1H398l-6-37.7h-14l-5.4 18.3-5.2-18.3h-13.8z" fill="#3a3a3a"/>
</svg>