<?xml version="1.0" encoding="utf-8"?>
<svg xmlns="http://www.w3.org/2000/svg" height="177" width="400">
  <g fill="#3A3A3A">
    <path d="M399.874 41.278H273.831C258.25 16.744 230.925.581 199.646.581c-31.278 0-58.603 16.28-74.184 40.697H.116l12.79 12.79h105.928c-1.976 4.652-3.488 9.419-4.65 14.419h-86.86l12.791 12.79h72.092a72.416 72.416 0 0 0-.35 7.093c0 2.442.117 4.884.35 7.325h-57.79l12.79 12.79h46.976c1.163 5 2.675 9.768 4.651 14.42H81.51l12.79 12.79h31.395c15.58 24.417 42.906 40.58 74.068 40.58s58.487-16.163 74.068-40.58h32.092l12.79-12.79h-38.022c1.977-4.652 3.488-9.42 4.651-14.42h47.673l12.79-12.79h-58.602a75.42 75.42 0 0 0 .348-7.325c0-2.442-.116-4.767-.348-7.093h72.788l12.79-12.79h-87.555c-1.163-5-2.675-9.767-4.651-14.419H387.2l12.674-12.79zM199.995 163.485c-41.394 0-74.998-33.604-74.998-74.999 0-41.394 33.604-74.998 74.998-74.998 41.395 0 74.998 33.604 74.998 74.998 0 41.395-33.603 74.999-74.998 74.999z"/>
    <path d="M161.392 99.416l-10.117-30.813h-11.627v39.534h8.488V78.835l8.837 29.302h8.837l8.837-29.302v29.302h8.488V68.603h-11.627zm73.486-1.86l-15.93-28.953h-9.302v39.534h7.907V80.463l15.814 27.907 9.418-.233V68.603h-7.79zm-42.557-28.953h8.023v39.534h-8.023zm59.65 0h8.023v39.534h-8.023z"/>
  </g>
</svg>